<mxfile host="app.diagrams.net" modified="2021-01-06T12:19:01.076Z" agent="5.0 (Windows NT 10.0; Win64; x64) AppleWebKit/537.36 (KHTML, like Gecko) Chrome/87.0.4280.88 Safari/537.36" etag="Fzteb1cWsPWh7MOAKyZy" version="14.1.5" type="github">
  <diagram id="DqPu59JN9UNV6ZKCUZyR" name="Page-1">
    <mxGraphModel dx="1038" dy="491" grid="1" gridSize="4" guides="1" tooltips="1" connect="1" arrows="1" fold="1" page="1" pageScale="1" pageWidth="827" pageHeight="1169" math="0" shadow="0">
      <root>
        <mxCell id="0" />
        <mxCell id="1" parent="0" />
        <mxCell id="vru_h_hdxQ8xCMEABdfR-12" style="edgeStyle=orthogonalEdgeStyle;rounded=0;orthogonalLoop=1;jettySize=auto;html=1;strokeWidth=4;" edge="1" parent="1" source="vru_h_hdxQ8xCMEABdfR-1">
          <mxGeometry relative="1" as="geometry">
            <mxPoint x="390" y="229" as="targetPoint" />
          </mxGeometry>
        </mxCell>
        <mxCell id="vru_h_hdxQ8xCMEABdfR-1" value="&lt;font style=&quot;font-size: 16px&quot;&gt;StarterFunctions&lt;/font&gt;" style="aspect=fixed;html=1;points=[];align=center;image;fontSize=12;image=img/lib/azure2/iot/Function_Apps.svg;" vertex="1" parent="1">
          <mxGeometry x="210" y="189" width="90.67" height="80" as="geometry" />
        </mxCell>
        <mxCell id="vru_h_hdxQ8xCMEABdfR-5" style="edgeStyle=orthogonalEdgeStyle;rounded=0;orthogonalLoop=1;jettySize=auto;html=1;strokeWidth=4;" edge="1" parent="1" source="vru_h_hdxQ8xCMEABdfR-2">
          <mxGeometry relative="1" as="geometry">
            <mxPoint x="200" y="230" as="targetPoint" />
          </mxGeometry>
        </mxCell>
        <mxCell id="vru_h_hdxQ8xCMEABdfR-2" value="" style="shape=image;html=1;verticalAlign=top;verticalLabelPosition=bottom;labelBackgroundColor=#ffffff;imageAspect=0;aspect=fixed;image=https://cdn4.iconfinder.com/data/icons/logos-brands-5/24/postman-128.png" vertex="1" parent="1">
          <mxGeometry x="30" y="191" width="78" height="78" as="geometry" />
        </mxCell>
        <mxCell id="vru_h_hdxQ8xCMEABdfR-7" value="HTTP Trigger" style="text;html=1;strokeColor=none;fillColor=none;align=center;verticalAlign=middle;whiteSpace=wrap;rounded=0;" vertex="1" parent="1">
          <mxGeometry x="110" y="200" width="80" height="20" as="geometry" />
        </mxCell>
        <mxCell id="vru_h_hdxQ8xCMEABdfR-9" value="FeedbackForm" style="text;html=1;align=center;verticalAlign=middle;resizable=0;points=[];autosize=1;" vertex="1" parent="1">
          <mxGeometry x="100" y="240" width="100" height="20" as="geometry" />
        </mxCell>
        <mxCell id="vru_h_hdxQ8xCMEABdfR-14" style="edgeStyle=orthogonalEdgeStyle;rounded=0;orthogonalLoop=1;jettySize=auto;html=1;strokeWidth=3;dashed=1;" edge="1" parent="1" source="vru_h_hdxQ8xCMEABdfR-10">
          <mxGeometry relative="1" as="geometry">
            <mxPoint x="439" y="190" as="targetPoint" />
          </mxGeometry>
        </mxCell>
        <mxCell id="vru_h_hdxQ8xCMEABdfR-10" value="" style="verticalLabelPosition=bottom;html=1;verticalAlign=top;align=center;strokeColor=none;fillColor=#00BEF2;shape=mxgraph.azure.storage;pointerEvents=1;" vertex="1" parent="1">
          <mxGeometry x="414" y="80" width="50" height="40" as="geometry" />
        </mxCell>
        <mxCell id="vru_h_hdxQ8xCMEABdfR-13" style="edgeStyle=orthogonalEdgeStyle;rounded=0;orthogonalLoop=1;jettySize=auto;html=1;entryX=0.64;entryY=1.04;entryDx=0;entryDy=0;entryPerimeter=0;strokeWidth=3;dashed=1;" edge="1" parent="1" source="vru_h_hdxQ8xCMEABdfR-11" target="vru_h_hdxQ8xCMEABdfR-10">
          <mxGeometry relative="1" as="geometry" />
        </mxCell>
        <mxCell id="vru_h_hdxQ8xCMEABdfR-11" value="&lt;span style=&quot;font-size: 16px&quot;&gt;Orchestrator Function&lt;/span&gt;" style="aspect=fixed;html=1;points=[];align=center;image;fontSize=12;image=img/lib/azure2/iot/Function_Apps.svg;" vertex="1" parent="1">
          <mxGeometry x="400" y="189" width="90.67" height="80" as="geometry" />
        </mxCell>
        <mxCell id="vru_h_hdxQ8xCMEABdfR-15" value="Table Storage" style="text;html=1;align=center;verticalAlign=middle;resizable=0;points=[];autosize=1;" vertex="1" parent="1">
          <mxGeometry x="392" y="36" width="88" height="20" as="geometry" />
        </mxCell>
        <mxCell id="vru_h_hdxQ8xCMEABdfR-19" style="edgeStyle=orthogonalEdgeStyle;rounded=0;orthogonalLoop=1;jettySize=auto;html=1;entryX=0;entryY=0.5;entryDx=0;entryDy=0;entryPerimeter=0;strokeWidth=4;" edge="1" parent="1" source="vru_h_hdxQ8xCMEABdfR-16" target="vru_h_hdxQ8xCMEABdfR-18">
          <mxGeometry relative="1" as="geometry" />
        </mxCell>
        <mxCell id="vru_h_hdxQ8xCMEABdfR-16" value="&lt;span style=&quot;font-size: 16px&quot;&gt;Save FeedbackFormData&lt;/span&gt;" style="aspect=fixed;html=1;points=[];align=center;image;fontSize=12;image=img/lib/azure2/iot/Function_Apps.svg;" vertex="1" parent="1">
          <mxGeometry x="588" y="64" width="90.67" height="80" as="geometry" />
        </mxCell>
        <mxCell id="vru_h_hdxQ8xCMEABdfR-18" value="SQL DB" style="verticalLabelPosition=bottom;html=1;verticalAlign=top;align=center;strokeColor=none;fillColor=#00BEF2;shape=mxgraph.azure.sql_database_sql_azure;" vertex="1" parent="1">
          <mxGeometry x="752" y="79" width="47.5" height="50" as="geometry" />
        </mxCell>
        <mxCell id="vru_h_hdxQ8xCMEABdfR-22" value="" style="endArrow=classic;html=1;strokeWidth=2;entryX=-0.004;entryY=0.61;entryDx=0;entryDy=0;entryPerimeter=0;exitX=0.984;exitY=0.178;exitDx=0;exitDy=0;exitPerimeter=0;" edge="1" parent="1" source="vru_h_hdxQ8xCMEABdfR-11" target="vru_h_hdxQ8xCMEABdfR-16">
          <mxGeometry width="50" height="50" relative="1" as="geometry">
            <mxPoint x="516" y="178" as="sourcePoint" />
            <mxPoint x="566" y="128" as="targetPoint" />
          </mxGeometry>
        </mxCell>
        <mxCell id="vru_h_hdxQ8xCMEABdfR-29" value="&lt;span style=&quot;font-size: 16px&quot;&gt;Send Email to Customer&lt;br&gt;with TicketNumber&lt;br&gt;&lt;/span&gt;" style="aspect=fixed;html=1;points=[];align=center;image;fontSize=12;image=img/lib/azure2/iot/Function_Apps.svg;" vertex="1" parent="1">
          <mxGeometry x="616" y="191" width="90.67" height="80" as="geometry" />
        </mxCell>
        <mxCell id="vru_h_hdxQ8xCMEABdfR-30" value="&lt;span style=&quot;font-size: 16px&quot;&gt;send a txt file to support team&lt;/span&gt;" style="aspect=fixed;html=1;points=[];align=center;image;fontSize=12;image=img/lib/azure2/iot/Function_Apps.svg;" vertex="1" parent="1">
          <mxGeometry x="612" y="332" width="90.67" height="80" as="geometry" />
        </mxCell>
        <mxCell id="vru_h_hdxQ8xCMEABdfR-31" value="" style="endArrow=classic;html=1;strokeWidth=2;" edge="1" parent="1" source="vru_h_hdxQ8xCMEABdfR-11" target="vru_h_hdxQ8xCMEABdfR-30">
          <mxGeometry width="50" height="50" relative="1" as="geometry">
            <mxPoint x="400" y="378" as="sourcePoint" />
            <mxPoint x="450" y="328" as="targetPoint" />
          </mxGeometry>
        </mxCell>
      </root>
    </mxGraphModel>
  </diagram>
</mxfile>
